<svg id="Capa_1" enable-background="new 0 0 605.685 605.685" height="512" viewBox="0 0 605.685 605.685" width="512" xmlns="http://www.w3.org/2000/svg"><g><g id="Page-1_66_"><g id="_x30_67---Interior-Design" transform="translate(0 -1)"><path id="Shape_254_" d="m80.779 606.685h444.139c16.724 0 30.282-13.558 30.282-30.282v-340.635l3.583 2.372c6.585 4.547 14.749 6.189 22.58 4.542 8.057-1.667 15.085-6.549 19.461-13.516l.061-.101c8.869-14.289 4.986-33.021-8.832-42.607l-272.59-180.37c-10.012-6.784-23.147-6.784-33.159 0l-272.742 180.462c-13.79 9.618-17.624 28.355-8.721 42.617 4.328 6.962 11.316 11.849 19.34 13.526 2.017.406 4.07.609 6.127.606 5.883.008 11.632-1.75 16.504-5.047l3.684-2.473v340.624c0 16.724 13.558 30.282 30.283 30.282zm454.232-30.282c0 5.575-4.519 10.094-10.094 10.094h-444.138c-5.575 0-10.094-4.519-10.094-10.094v-353.969l232.163-153.43 232.163 153.43zm-499.444-354.958c-2.113 1.461-4.735 1.987-7.248 1.454-2.652-.554-4.959-2.175-6.379-4.482-3.196-4.985-1.952-11.597 2.836-15.081l272.752-180.471c1.569-1.066 3.423-1.635 5.32-1.635 1.935.008 3.822.595 5.421 1.686l272.57 180.371c4.827 3.45 6.12 10.068 2.947 15.081-1.454 2.335-3.798 3.976-6.49 4.542-2.53.503-5.157-.051-7.268-1.534l-261.608-172.893c-3.373-2.203-7.73-2.203-11.103 0z"/><path id="Shape_253_" d="m218.522 191.486c-11.723-11.667-30.672-11.667-42.395 0l-56.284 56.284c-11.673 11.721-11.673 30.674 0 42.395l91.341 91.422-56.184 56.194c-1.218 1.208-2.105 2.71-2.574 4.361l-23.529 82.378c-1.673 5.845-.504 12.137 3.156 16.991s9.388 7.709 15.467 7.709c1.799-.004 3.589-.255 5.32-.747l82.378-23.549c1.65-.469 3.152-1.356 4.361-2.574l56.204-56.163 91.361 91.371c11.726 11.662 30.669 11.662 42.395 0l56.284-56.284c11.673-11.721 11.673-30.674 0-42.395l-91.311-91.422 77.29-77.29c7.503-7.492 11.719-17.66 11.719-28.263s-4.216-20.771-11.719-28.263l-28.142-28.142c-7.478-7.521-17.657-11.734-28.263-11.699-10.604-.036-20.782 4.173-28.263 11.689l-77.22 77.371zm-35.248 302.6c-5.938-5.881-13.042-10.454-20.854-13.425l6.279-21.995 35.006 15 15 35.006-21.995 6.279c-2.974-7.817-7.551-14.925-13.436-20.865zm40.083-25.801 149.846-149.846 20.905 20.905-158.214 158.204zm128.952-199.297 20.905-20.905 56.083 56.083-20.915 20.895zm6.632 35.178-149.857 149.846-29.273-12.537 158.214-158.214zm-224.825-28.264c-3.827-3.831-3.827-10.038 0-13.869l56.284-56.284c3.831-3.827 10.038-3.827 13.869 0l21.006 21.006-21.006 21.006c-2.624 2.534-3.676 6.287-2.753 9.817.924 3.529 3.68 6.285 7.209 7.209s7.282-.129 9.817-2.753l21.006-21.006 20.905 20.925-13.97 13.97c-2.624 2.534-3.676 6.287-2.753 9.817.924 3.529 3.68 6.285 7.209 7.209s7.282-.129 9.817-2.753l13.97-13.97 20.905 20.905-70.154 70.154zm14.596 252.756 8.075-28.465c9.172 3.869 16.47 11.168 20.34 20.34zm252.432-125.994-13.97 13.97c-2.624 2.534-3.676 6.287-2.753 9.817.924 3.529 3.68 6.285 7.209 7.209s7.282-.129 9.817-2.753l13.97-13.99 20.905 20.905-21.006 21.006c-2.624 2.534-3.676 6.287-2.753 9.817.924 3.529 3.68 6.285 7.209 7.209s7.282-.129 9.817-2.753l21.006-21.006 20.995 21.005c3.827 3.831 3.827 10.038 0 13.869l-56.284 56.285c-3.831 3.827-10.038 3.827-13.869 0l-91.361-91.361 70.154-70.154zm14.263-188.638c5.243-.017 10.274 2.066 13.97 5.784l28.142 28.142c7.705 7.716 7.705 20.214 0 27.93l-13.96 14.011-56.083-56.083 13.97-13.97c3.69-3.725 8.718-5.819 13.961-5.814z"/></g></g></g></svg>