<svg height="512" viewBox="0 0 56 56" width="512" xmlns="http://www.w3.org/2000/svg"><g id="050---Interior-Design"><path id="Shape" d="m22.016 40v2h7.9l.1-.116v-1.884c0-.5522847-.4477153-1-1-1h-6c-.5522847 0-1 .4477153-1 1z"/><path id="Rectangle-path" d="m25.016 22h2v15h-2z"/><path id="Shape" d="m34.833 47.777-1.201-1.079-2.553-2.292-2.338 6.379z"/><path id="Shape" d="m36.016 55v-5.576l-8.1 4c-.1623223.3508035-.5134622.5755331-.9.576h-17c-.55228475 0-1-.4477153-1-1s.44771525-1 1-1h16.151l2.933-8h-25.084c-.55228475 0-1-.4477153-1-1s.44771525-1 1-1v-3.278c-.61675126-.3544126-.997855-1.0106732-1-1.722v-1.78c-.79005841-.7011024-1.14911879-1.7685581-.94338884-2.8046141.20572995-1.0360561.94539731-1.8853371 1.94338884-2.2313859v-6.184c0-2.209139 1.790861-4 4-4h5c2.209139 0 4 1.790861 4 4v6.184c.9979915.3460488 1.7376589 1.1953298 1.9433888 2.2313859.20573 1.036056-.1533304 2.1035117-.9433888 2.8046141v1.78c-.003578.7109378-.3842968 1.3665356-1 1.722v3.278h3v-2c0-1.6568542 1.3431458-3 3-3v-15h-2.941c-.6737481.0038382-1.3074984-.3193744-1.7-.867-.371267-.5167229-.4650899-1.1828278-.251-1.782l2.47-7c.2985787-.8180803 1.0801753-1.3593089 1.951-1.351h6.941c.8700779-.0071812 1.6503724.5343785 1.948 1.352l2.469 7c.2140899.5991722.120267 1.2652771-.251 1.782-.39205.5481504-1.0260922.8715119-1.7.867h-2.94v14.999c1.5323246.0049796 2.8133925 1.166487 2.968 2.691l4.036-4.491v-30.2c-.0002472-1.88312023.7607272-3.68637722 2.11-5h-33.11c-2.76005315.00330612-4.99669388 2.23994685-5 5v50c0 .5522847.44771525 1 1 1h34c.5522847 0 1-.4477153 1-1zm-5-53h2c.5522847 0 1 .44771525 1 1s-.4477153 1-1 1h-2c-.5522847 0-1-.44771525-1-1s.4477153-1 1-1zm-26 0h22c.5522847 0 1 .44771525 1 1s-.4477153 1-1 1h-22c-.55228475 0-1-.44771525-1-1s.44771525-1 1-1zm2 52h-3c-.55228475 0-1-.4477153-1-1s.44771525-1 1-1h3c.55228475 0 1 .4477153 1 1s-.44771525 1-1 1z"/><path id="Shape" d="m48.016 17v-12c0-2.76142375-2.2385763-5-5-5s-5 2.23857625-5 5v13h9c.5522847 0 1-.4477153 1-1z"/><path id="Shape" d="m31.956 20-2.409-6.983-7.002-.017-2.531 7.017.061-.017h3.941 4z"/><path id="Shape" d="m16.016 36c-1.2667854-.0052514-2.3937454-.8056491-2.816-2h-5.369c-.42213085 1.1940068-1.54858203 1.9943273-2.815 2v1h11z"/><circle id="Oval" cx="5.016" cy="33" r="1"/><circle id="Oval" cx="16.016" cy="33" r="1"/><path id="Shape" d="m48.323 28.979-2.232-2.004-14.03 15.625 2.231 2.004 2.233 2.004 14.031-15.624z"/><path id="Shape" d="m15.016 42v-3h-1.781l.6 3z"/><path id="Shape" d="m50.768 21.767-3.341 3.719 2.232 2 2.233 2 3.34-3.721c.7358428-.7944509.9864375-1.9237999.6556769-2.9549227-.3307605-1.0311229-1.191536-1.8039697-2.2522048-2.0221409s-2.1565947.1521975-2.8674721.9690636z"/><path id="Shape" d="m9.235 42h2.561l-.6-3h-1.361z"/><path id="Shape" d="m7.831 32h5.369c.3025307-.846935.969065-1.5134693 1.816-1.816v-6.184c0-1.1045695-.8954305-2-2-2h-5c-1.1045695 0-2 .8954305-2 2v6.184c.8465542.3027821 1.51268424.9692791 1.815 1.816z"/><path id="Shape" d="m7.196 42 .6-3h-1.78v3z"/></g></svg>